<mxfile host="app.diagrams.net" modified="2023-10-05T05:54:39.870Z" agent="Mozilla/5.0 (Macintosh; Intel Mac OS X 10_15_7) AppleWebKit/537.36 (KHTML, like Gecko) Chrome/117.0.0.0 Safari/537.36" version="21.8.1" etag="Ck6c2qIvNsLq8P8CUbuN" type="github">
  <diagram name="Page-1" id="7u2cVGBEA1CpqLlv5ftA">
    <mxGraphModel>
      <root>
        <mxCell id="0" />
        <mxCell id="1" parent="0" />
      </root>
    </mxGraphModel>
  </diagram>
</mxfile>
